<svg xmlns="http://www.w3.org/2000/svg" height="512" viewBox="0 0 128 128" width="512">
    <g id="Flat">
        <g id="Color">
            <path
                d="m86.677 113.405-.777-2.9 3.912-1.049a4.13 4.13 0 0 0 2.917-5.052l-.968-3.613 2.9-.776.969 3.612a7.133 7.133 0 0 1 -5.038 8.727z"
                fill="#0071DC"></path>
            <path
                d="m92.032 124.25-7.8 2.089a2.811 2.811 0 0 1 -3.029-1.1l-20.085-28.587a2.812 2.812 0 0 1 1.573-4.334l7.8-2.089a2.812 2.812 0 0 1 3.029 1.1l20.088 28.587a2.813 2.813 0 0 1 -1.576 4.334z"
                fill="#0071DC"></path>
            <path
                d="m67.948 106.373c3.988-.444 9.485-.8 15.373-1.093l-9.8-13.951a2.812 2.812 0 0 0 -3.029-1.1l-7.8 2.089a2.812 2.812 0 0 0 -1.573 4.334z"
                fill="#0071DC"></path>
            <path
                d="m98.765 28.786a7.4 7.4 0 0 0 -3.547 2.3c-9.018 5.839-32.861 21.248-43.425 27.814-9.042 5.626-12.88 16.37-10.126 26.648 3.1 11.577 13.753 19.239 25.657 17.875 12.007-1.373 38.422-1.968 47.618-2.132a7.031 7.031 0 0 0 3.235-.061c8.2-2.2 10.5-20.2 5.139-40.2s-16.352-34.441-24.551-32.244z"
                fill="#eee"></path>
            <path
                d="m72.285 102.957c-1.835.142-3.5.3-4.961.466-11.9 1.364-22.556-6.3-25.657-17.875-2.754-10.278 1.084-21.022 10.126-26.648 1.605-1 3.515-2.2 5.633-3.538a65.63 65.63 0 0 0 2.145 22.749 62.757 62.757 0 0 0 12.714 24.846z"
                fill="#0071DC"></path>
            <ellipse cx="108.471" cy="65.008" fill="#e0e0e0" rx="15.368" ry="37.5"
                transform="matrix(.966 -.259 .259 .966 -13.129 30.289)"></ellipse>
            <path d="m91.281 57.021a89.375 89.375 0 0 0 6.3 23.5 12.172 12.172 0 0 0 -6.3-23.5z"
                fill="#0071DC"></path>
            <path
                d="m60.411 34.534-19.5-17.1a12 12 0 0 0 -15.822 0l-19.5 17.1a12 12 0 0 0 -4.089 9.023v70.943a12 12 0 0 0 12 12h39a12 12 0 0 0 12-12v-70.943a12 12 0 0 0 -4.089-9.023zm-27.411 3.466a7 7 0 1 1 7-7 7 7 0 0 1 -7 7z"
                fill="#ffb300"></path>
            <g fill="#fff">
                <path
                    d="m20.5 93a3.5 3.5 0 0 1 -2.475-5.975l25-25a3.5 3.5 0 0 1 4.95 4.95l-25 25a3.49 3.49 0 0 1 -2.475 1.025z"></path>
                <circle cx="22.5" cy="66.5" r="5"></circle>
                <circle cx="43.5" cy="87.5" r="5"></circle>
            </g>
            <path
                d="m33 1.5a16.5 16.5 0 0 0 -15.38 22.48l5-4.38a10.5 10.5 0 1 1 10.38 8.9 10.427 10.427 0 0 1 -5.63-1.64 6.859 6.859 0 0 0 -1.37 4.14 7.07 7.07 0 0 0 .31 2.08 16.4 16.4 0 0 0 6.69 1.42 16.5 16.5 0 0 0 0-33z"
                fill="#9e9e9e"></path>
        </g>
    </g>
</svg>