<svg
    xmlns="http://www.w3.org/2000/svg"
    height="512"
    viewBox="0 0 128 128"
    width="512"
>
    <g id="Flat">
        <g id="Color">
            <path
                d="m118.969 64c0-6.279 4.421-13.189 2.6-18.855-1.891-5.872-9.56-8.828-13.089-13.716-3.564-4.936-4.008-13.189-8.905-16.782-4.848-3.557-12.754-1.455-18.579-3.362-5.625-1.84-10.767-8.285-16.996-8.285s-11.372 6.446-16.992 8.285c-5.825 1.907-13.731-.2-18.58 3.363-4.9 3.592-5.34 11.845-8.9 16.782-3.528 4.888-11.202 7.843-13.093 13.715-1.825 5.666 2.596 12.576 2.596 18.855s-4.421 13.189-2.596 18.855c1.891 5.872 9.565 8.828 13.089 13.716 3.564 4.936 4.008 13.189 8.9 16.782 4.848 3.557 12.754 1.455 18.579 3.362 5.626 1.84 10.768 8.285 16.997 8.285s11.372-6.446 16.992-8.285c5.825-1.907 13.731.195 18.58-3.363 4.9-3.592 5.34-11.845 8.9-16.782 3.529-4.888 11.2-7.843 13.089-13.715 1.829-5.666-2.592-12.576-2.592-18.855z"
                fill="#ffa000"
            ></path>
            <circle cx="64" cy="64" fill="#ffb300" r="42.5"></circle>
            <rect
                fill="#0071DC"
                height="39"
                rx="12"
                width="125"
                x="1.5"
                y="87.5"
            ></rect>
            <path
                d="m51.5 80a3.5 3.5 0 0 1 -2.475-5.975l25-25a3.5 3.5 0 0 1 4.95 4.95l-25 25a3.49 3.49 0 0 1 -2.475 1.025z"
                fill="#fff"
            ></path>
            <circle cx="53.5" cy="53.5" fill="#fff" r="5"></circle>
            <circle cx="74.5" cy="74.5" fill="#fff" r="5"></circle>
            <g fill="#fff">
                <path
                    d="m79.625 99.125h7.5a1.5 1.5 0 0 0 0-3h-7.5a5.256 5.256 0 0 0 -5.25 5.25v11.25a5.256 5.256 0 0 0 5.25 5.25h7.5a1.5 1.5 0 0 0 0-3h-7.5a2.253 2.253 0 0 1 -2.25-2.25v-4.125h9.75a1.5 1.5 0 0 0 0-3h-9.75v-4.125a2.253 2.253 0 0 1 2.25-2.25z"></path>
                <path
                    d="m27.75 96.125a7.133 7.133 0 0 0 -7.125 7.125v7.5a7.125 7.125 0 0 0 14.25 0v-7.5a7.133 7.133 0 0 0 -7.125-7.125zm4.125 14.625a4.125 4.125 0 0 1 -8.25 0v-7.5a4.125 4.125 0 0 1 8.25 0z"></path>
                <path
                    d="m52.125 96.125h-7.5a5.256 5.256 0 0 0 -5.25 5.25v15a1.5 1.5 0 0 0 3 0v-7.875h7.875a1.5 1.5 0 0 0 0-3h-7.875v-4.125a2.253 2.253 0 0 1 2.25-2.25h7.5a1.5 1.5 0 0 0 0-3z"></path>
                <path
                    d="m69.625 96.125h-7.5a5.256 5.256 0 0 0 -5.25 5.25v15a1.5 1.5 0 0 0 3 0v-7.875h7.875a1.5 1.5 0 0 0 0-3h-7.875v-4.125a2.253 2.253 0 0 1 2.25-2.25h7.5a1.5 1.5 0 0 0 0-3z"></path>
                <path
                    d="m107.375 102.313a6.194 6.194 0 0 0 -6.187-6.188h-2.813a5.256 5.256 0 0 0 -5.25 5.25v15a1.5 1.5 0 0 0 3 0v-6.175l8.79 7.324a1.5 1.5 0 1 0 1.92-2.3l-8.067-6.724h2.42a6.194 6.194 0 0 0 6.187-6.187zm-11.25 3.187v-4.125a2.253 2.253 0 0 1 2.25-2.25h2.813a3.188 3.188 0 0 1 0 6.375z"></path>
            </g>
        </g>
    </g>
</svg>